<svg width="24" height="24" viewBox="0 0 22 22" fill="none" xmlns="http://www.w3.org/2000/svg">
<path d="M17.0615 18C16.8 18 16.548 18.0919 16.3376 18.2471C14.8442 19.3488 12.9982 20 11 20C6.02944 20 2 15.9706 2 11C2 6.02944 6.02944 2 11 2C13.4893 2 15.7426 3.01063 17.3719 4.64397C17.592 4.86467 17.8865 5 18.1982 5V5C19.0685 5 19.5676 4.04612 18.9675 3.41587C16.9638 1.31154 14.1351 0 11 0C4.92487 0 0 4.92487 0 11C0 17.0751 4.92487 22 11 22C13.5443 22 15.8868 21.1362 17.7503 19.6858C18.5126 19.0926 18.0273 18 17.0615 18V18Z" fill="currentcolor"/>
</svg>
