<svg width="340" height="147" viewBox="0 0 340 147" fill="none" xmlns="http://www.w3.org/2000/svg">

  <path d="M42 130C42 124.477 46.4772 120 52 120H330C335.523 120 340 124.477 340 130V136C340 141.523 335.523 146 330 146H52C46.4772 146 42 141.523 42 136V130Z" fill="currentcolor"/>

  <path d="M14 147C21.732 147 28 140.732 28 133C28 125.268 21.732 119 14 119C6.26801 119 0 125.268 0 133C0 140.732 6.26801 147 14 147Z" fill="currentcolor"/>

  <path d="M42 69C42 63.4772 46.4772 59 52 59H330C335.523 59 340 63.4772 340 69V75C340 80.5228 335.523 85 330 85H52C46.4772 85 42 80.5228 42 75V69Z" fill="currentcolor"/>

  <path d="M14 86C21.732 86 28 79.732 28 72C28 64.268 21.732 58 14 58C6.26801 58 0 64.268 0 72C0 79.732 6.26801 86 14 86Z" fill="currentcolor"/>
  
  <path d="M42 11C42 5.47715 46.4772 1 52 1H330C335.523 1 340 5.47715 340 11V17C340 22.5228 335.523 27 330 27H52C46.4772 27 42 22.5228 42 17V11Z" fill="currentcolor"/>

  <path d="M14 28C21.732 28 28 21.732 28 14C28 6.26801 21.732 0 14 0C6.26801 0 0 6.26801 0 14C0 21.732 6.26801 28 14 28Z" fill="currentcolor"/>
</svg>
